<?xml version="1.0" standalone="no"?>
<!DOCTYPE svg PUBLIC "-//W3C//DTD SVG 20010904//EN"
 "http://www.w3.org/TR/2001/REC-SVG-20010904/DTD/svg10.dtd">
<svg version="1.0" xmlns="http://www.w3.org/2000/svg"
 width="120.000000pt" height="120.000000pt" viewBox="0 0 120.000000 120.000000"
 preserveAspectRatio="xMidYMid meet">
<metadata>
Created by potrace 1.11, written by Peter Selinger 2001-2013
</metadata>
<g transform="translate(0.000000,120.000000) scale(0.100000,-0.100000)"
fill="#000000" stroke="none">
<path d="M510 1067 c-60 -17 -109 -48 -143 -91 -41 -53 -49 -82 -46 -181 1
-49 -2 -98 -6 -108 -7 -16 0 -94 12 -124 8 -20 41 -35 64 -28 14 5 17 10 10
19 -6 6 -15 52 -22 102 -11 84 -11 92 10 138 11 27 21 55 21 62 0 17 -4 17 57
-1 61 -18 215 -34 300 -32 l62 2 14 -40 c18 -52 14 -173 -6 -213 -14 -29 -14
-32 4 -37 10 -3 27 -2 37 4 28 15 55 135 35 155 -4 3 -6 48 -4 100 4 141 -35
210 -143 257 -62 27 -190 35 -256 16z m-183 -419 c-3 -7 -5 -2 -5 12 0 14 2
19 5 13 2 -7 2 -19 0 -25z m580 10 c-3 -8 -6 -5 -6 6 -1 11 2 17 5 13 3 -3 4
-12 1 -19z"/>
<path d="M463 783 c-23 -5 -49 -30 -40 -39 3 -3 30 -3 61 1 55 7 74 26 40 39
-16 6 -24 6 -61 -1z"/>
<path d="M703 784 c-7 -3 -13 -12 -13 -19 0 -13 106 -32 118 -21 19 19 -73 54
-105 40z"/>
<path d="M460 700 c-26 -26 -25 -45 1 -64 19 -13 24 -13 36 0 8 8 19 12 24 9
17 -11 9 42 -9 58 -24 22 -28 21 -52 -3z m25 -10 c-3 -5 -11 -10 -16 -10 -6 0
-7 5 -4 10 3 6 11 10 16 10 6 0 7 -4 4 -10z"/>
<path d="M689 703 c-13 -16 -12 -17 4 -4 9 7 17 15 17 17 0 8 -8 3 -21 -13z"/>
<path d="M717 702 c-23 -25 -21 -59 4 -72 17 -9 23 -8 35 7 7 10 14 14 14 8 0
-11 20 15 20 28 0 10 -38 47 -48 47 -5 0 -16 -8 -25 -18z m23 -12 c0 -5 -4
-10 -10 -10 -5 0 -10 5 -10 10 0 6 5 10 10 10 6 0 10 -4 10 -10z"/>
<path d="M795 700 c10 -11 20 -20 23 -20 3 0 -3 9 -13 20 -10 11 -20 20 -23
20 -3 0 3 -9 13 -20z"/>
<path d="M563 545 c2 -5 25 -10 52 -10 27 0 50 5 52 10 2 6 -20 10 -52 10 -32
0 -54 -4 -52 -10z"/>
<path d="M243 435 c0 -44 2 -61 4 -37 2 23 2 59 0 80 -2 20 -4 1 -4 -43z"/>
<path d="M980 465 c0 -82 -13 -174 -23 -168 -6 4 -7 1 -1 -8 4 -8 7 -27 6 -44
-1 -29 -1 -29 8 -5 14 38 29 244 19 255 -5 5 -9 -7 -9 -30z"/>
<path d="M250 303 c0 -26 -8 -45 -25 -63 -24 -25 -65 -123 -65 -155 0 -13 54
-15 456 -15 l456 0 -6 27 c-11 46 -64 153 -75 153 -6 0 -11 -15 -11 -32 0 -18
-3 -57 -6 -86 l-7 -52 -352 0 -353 0 -5 48 c-2 26 -2 84 0 130 2 45 1 82 -2
82 -3 0 -5 -17 -5 -37z"/>
<path d="M952 158 c-14 -14 -16 -28 -3 -28 9 0 24 30 18 36 -2 2 -9 -2 -15 -8z"/>
<path d="M930 111 c0 -5 7 -11 15 -15 9 -3 15 0 15 9 0 8 -7 15 -15 15 -8 0
-15 -4 -15 -9z"/>
</g>
</svg>
